:::JOIN  http://www.SceneTime.com    ::::....

....::::JOIN  http://www.SceneTime.com   ::::....

.....:::::JOIN  http://www.SceneTime.com   ::::....

......::::::JOIN  http://www.SceneTime.com   ::::....


**********************************************************************************

Love for All and Sharing is the first step to solving all the problems of humanity.

Website I want to share.
             
                                            
http://SceneTime.com


- Latest Releases
- Super Fast Speeds
- Good Community
- Competitions with prizes (yay)
- Love for the Scene


Credit to EVERYONE for sharing and seeding back
especially to SceneTime where i get all my
downloads.

For more info about this release, open .NFO file with notepad !!!
Support scenetime to grow faster.

*************************************************************************************

....::::JOIN   http://www.SceneTime.com   ::::....
....::::JOIN   http://www.SceneTime.com   ::::....




Man.Of.Steel.2013.FULL.ViDEO.ENG.AUDiO.CAMRip-0HKAY


 
http://www.imdb.com/title/tt0770828/


Note:
Big Thx to felis for source file


General
Complete name                            : Man.Of.Steel.2013.FULL.ViDEO.ENG.AUDiO.CAMRip-0HKAY.avi
Format                                   : AVI
Format/Info                              : Audio Video Interleave
File size                                : 624 MiB
Duration                                 : 2h 12mn
Overall bit rate                         : 658 Kbps
Writing application                      : Lavf52.84.0

Video
ID                                       : 0
Format                                   : MPEG-4 Visual
Codec ID                                 : FMP4
Duration                                 : 2h 12mn
Bit rate                                 : 516 Kbps
Width                                    : 352 pixels
Height                                   : 240 pixels
Display aspect ratio                     : 3:2
Frame rate                               : 29.970 fps
Standard                                 : NTSC
Color space                              : YUV
Chroma subsampling                       : 4:2:0
Compression mode                         : Lossy
Bits/(Pixel*Frame)                       : 0.204
Stream size                              : 490 MiB (78%)

Audio
ID                                       : 1
Format                                   : MPEG Audio
Format version                           : Version 1
Format profile                           : Layer 3
Mode                                     : Joint stereo
Mode extension                           : MS Stereo
Codec ID                                 : 55
Codec ID/Hint                            : MP3
Duration                                 : 2h 12mn
Bit rate mode                            : Constant
Bit rate                                 : 128 Kbps
Channel(s)                               : 2 channels
Sampling rate                            : 48.0 KHz
Compression mode                         : Lossy
Stream size                              : 121 MiB (19%)
Alignment                                : Aligned on interleaves
Interleave, duration                     : 24 ms (0.72 video frame)
Writing library                          : LAME3.98.4UU


